{
    "asset" : {
        "generator" : "Khronos glTF Blender I/O v1.6.16",
        "version" : "2.0"
    },
    "scene" : 0,
    "scenes" : [
        {
            "name" : "Scene",
            "nodes" : [
                0,
                1,
                2
            ]
        }
    ],
    "nodes" : [
        {
            "mesh" : 0,
            "name" : "Plane.001",
            "rotation" : [
                0,
                0.7071068286895752,
                0,
                0.7071068286895752
            ],
            "scale" : [
                2,
                1,
                2
            ],
            "translation" : [
                0,
                6.527490139007568,
                40
            ]
        },
        {
            "mesh" : 1,
            "name" : "Root",
            "rotation" : [
                0.7071068286895752,
                0,
                0,
                0.7071067094802856
            ],
            "scale" : [
                0.0032550001051276922,
                0.0032549428287893534,
                0.0032549428287893534
            ],
            "translation" : [
                28.00360679626465,
                6.691620826721191,
                63.204288482666016
            ]
        },
        {
            "mesh" : 2,
            "name" : "Plane.015",
            "scale" : [
                0.4252329170703888,
                0.4252329170703888,
                0.4252329170703888
            ],
            "translation" : [
                18.953340530395508,
                6.473635196685791,
                118.3006820678711
            ]
        }
    ],
    "materials" : [
        {
            "doubleSided" : true,
            "name" : "Material.001",
            "pbrMetallicRoughness" : {
                "baseColorTexture" : {
                    "index" : 0
                },
                "metallicFactor" : 0,
                "roughnessFactor" : 0.5
            }
        },
        {
            "doubleSided" : true,
            "name" : "Material.017",
            "pbrMetallicRoughness" : {
                "baseColorFactor" : [
                    0.20000000298023224,
                    0.20000000298023224,
                    0.20000000298023224,
                    1
                ],
                "metallicFactor" : 0.8072729706764221,
                "roughnessFactor" : 0.19454500079154968
            }
        },
        {
            "doubleSided" : true,
            "name" : "Material.047",
            "pbrMetallicRoughness" : {
                "baseColorTexture" : {
                    "index" : 1
                },
                "metallicFactor" : 0,
                "roughnessFactor" : 0.5
            }
        }
    ],
    "meshes" : [
        {
            "name" : "Plane.001",
            "primitives" : [
                {
                    "attributes" : {
                        "POSITION" : 0,
                        "NORMAL" : 1,
                        "TEXCOORD_0" : 2
                    },
                    "indices" : 3,
                    "material" : 0
                }
            ]
        },
        {
            "name" : "Root",
            "primitives" : [
                {
                    "attributes" : {
                        "POSITION" : 4,
                        "NORMAL" : 5,
                        "TEXCOORD_0" : 6
                    },
                    "indices" : 7,
                    "material" : 1
                }
            ]
        },
        {
            "name" : "Plane.014",
            "primitives" : [
                {
                    "attributes" : {
                        "POSITION" : 8,
                        "NORMAL" : 9,
                        "TEXCOORD_0" : 10
                    },
                    "indices" : 11,
                    "material" : 2
                }
            ]
        }
    ],
    "textures" : [
        {
            "sampler" : 0,
            "source" : 0
        },
        {
            "sampler" : 0,
            "source" : 1
        }
    ],
    "images" : [
        {
            "bufferView" : 4,
            "mimeType" : "image/png",
            "name" : "road1"
        },
        {
            "bufferView" : 13,
            "mimeType" : "image/png",
            "name" : "building"
        }
    ],
    "accessors" : [
        {
            "bufferView" : 0,
            "componentType" : 5126,
            "count" : 4,
            "max" : [
                1,
                0,
                1
            ],
            "min" : [
                -1,
                0,
                -1
            ],
            "type" : "VEC3"
        },
        {
            "bufferView" : 1,
            "componentType" : 5126,
            "count" : 4,
            "type" : "VEC3"
        },
        {
            "bufferView" : 2,
            "componentType" : 5126,
            "count" : 4,
            "type" : "VEC2"
        },
        {
            "bufferView" : 3,
            "componentType" : 5123,
            "count" : 6,
            "type" : "SCALAR"
        },
        {
            "bufferView" : 5,
            "componentType" : 5126,
            "count" : 2848,
            "max" : [
                619.5799560546875,
                58.82817459106445,
                3.53076171875
            ],
            "min" : [
                -58.830718994140625,
                -58.831825256347656,
                -1581.7098388671875
            ],
            "type" : "VEC3"
        },
        {
            "bufferView" : 6,
            "componentType" : 5126,
            "count" : 2848,
            "type" : "VEC3"
        },
        {
            "bufferView" : 7,
            "componentType" : 5126,
            "count" : 2848,
            "type" : "VEC2"
        },
        {
            "bufferView" : 8,
            "componentType" : 5123,
            "count" : 4230,
            "type" : "SCALAR"
        },
        {
            "bufferView" : 9,
            "componentType" : 5126,
            "count" : 5541,
            "max" : [
                10.146818161010742,
                25.394542694091797,
                7.117664337158203
            ],
            "min" : [
                -7.529486656188965,
                -0.18788301944732666,
                -7.14312219619751
            ],
            "type" : "VEC3"
        },
        {
            "bufferView" : 10,
            "componentType" : 5126,
            "count" : 5541,
            "type" : "VEC3"
        },
        {
            "bufferView" : 11,
            "componentType" : 5126,
            "count" : 5541,
            "type" : "VEC2"
        },
        {
            "bufferView" : 12,
            "componentType" : 5123,
            "count" : 10956,
            "type" : "SCALAR"
        }
    ],
    "bufferViews" : [
        {
            "buffer" : 0,
            "byteLength" : 48,
            "byteOffset" : 0
        },
        {
            "buffer" : 0,
            "byteLength" : 48,
            "byteOffset" : 48
        },
        {
            "buffer" : 0,
            "byteLength" : 32,
            "byteOffset" : 96
        },
        {
            "buffer" : 0,
            "byteLength" : 12,
            "byteOffset" : 128
        },
        {
            "buffer" : 0,
            "byteLength" : 90970,
            "byteOffset" : 140
        },
        {
            "buffer" : 0,
            "byteLength" : 34176,
            "byteOffset" : 91112
        },
        {
            "buffer" : 0,
            "byteLength" : 34176,
            "byteOffset" : 125288
        },
        {
            "buffer" : 0,
            "byteLength" : 22784,
            "byteOffset" : 159464
        },
        {
            "buffer" : 0,
            "byteLength" : 8460,
            "byteOffset" : 182248
        },
        {
            "buffer" : 0,
            "byteLength" : 66492,
            "byteOffset" : 190708
        },
        {
            "buffer" : 0,
            "byteLength" : 66492,
            "byteOffset" : 257200
        },
        {
            "buffer" : 0,
            "byteLength" : 44328,
            "byteOffset" : 323692
        },
        {
            "buffer" : 0,
            "byteLength" : 21912,
            "byteOffset" : 368020
        },
        {
            "buffer" : 0,
            "byteLength" : 4598,
            "byteOffset" : 389932
        }
    ],
    "samplers" : [
        {
            "magFilter" : 9729,
            "minFilter" : 9987
        }
    ],
    "buffers" : [
        {
            "byteLength" : 394532,
            "uri" : "data:application/octet-stream;base64,"
        }
    ]
}
